<svg width="1398" height="57" viewBox="0 0 1398 57" fill="none" xmlns="http://www.w3.org/2000/svg">
<path d="M1397 57L1397 37.2794C1397 34.5463 1395.88 31.9324 1393.9 30.0454L1366.37 3.76602C1364.51 1.99059 1362.04 1 1359.47 1L847.378 1.00002C845.299 1.00002 843.271 1.64836 841.577 2.85481L783.632 44.1257C781.921 45.3442 779.87 45.9931 777.769 45.9803L699 45.5L620.231 45.9803C618.13 45.9931 616.079 45.3442 614.368 44.1257L556.423 2.85481C554.729 1.64836 552.702 1.00002 550.622 1.00002H38.5342C35.9627 1.00002 33.4901 1.99061 31.6299 3.76603L4.09569 30.0454C2.11861 31.9324 1 34.5463 1 37.2794V57" stroke="#FF3C00"/>
</svg>
